<?xml version="1.0" encoding="UTF-8"?>
<svg id="grave" width="64px" height="64px" enable-background="new 0 0 64 64" version="1.1" viewBox="0 0 64 64" xml:space="preserve" xmlns="http://www.w3.org/2000/svg"><g transform="matrix(1.1086 0 0 1.1086 -3.4763 -3.4767)" fill="#000000"><path d="m37.183 33.647c-0.553 0-1-0.447-1-1v-9.069c0-0.553 0.447-1 1-1h2.591c1.98 0 3.592 1.611 3.592 3.592s-1.611 3.591-3.592 3.591h-1.295c-0.103 0-0.202-0.016-0.296-0.045v2.932c0 0.552-0.448 0.999-1 0.999zm1-9.069v3.228c0.094-0.029 0.193-0.045 0.296-0.045h1.295c0.878 0 1.592-0.714 1.592-1.591 0-0.878-0.714-1.592-1.592-1.592z"/><path d="m32 33.647c-0.553 0-1-0.447-1-1v-9.069c0-0.553 0.447-1 1-1s1 0.447 1 1v9.069c0 0.553-0.447 1-1 1z"/><path d="m25.195 29.611c1.508-0.426 2.622-1.799 2.622-3.441 0-1.98-1.61-3.592-3.591-3.592h-2.592c-0.553 0-1 0.447-1 1v9.069c0 0.553 0.447 1 1 1s1-0.447 1-1v-2.769l3.476 3.476c0.195 0.195 0.451 0.293 0.707 0.293s0.512-0.098 0.707-0.293c0.391-0.391 0.391-1.023 0-1.414zm-2.56-5.033h1.592c0.877 0 1.591 0.714 1.591 1.592 0 0.877-0.714 1.591-1.591 1.591h-1.296-0.296z"/></g><path d="m24.818 4.3184c-6.9479 0-12.6 5.6532-12.6 12.6v23.087c-3e-3 0.0012-0.0057 0.0031-0.0087 0.0043v3.1267c0.0035-0.0037 0.0073-0.0071 0.01083-0.01082v5.7229h-3.2003c-0.61308-0.0022-1.1086 0.49451-1.1086 1.1065v6.4115c-0.00222 0-0.00644-0.0022-0.00866-0.0022-0.00512 0-0.010059 0.0021-0.015157 0.0022v2.711c0.089955 0.06175 0.18273 0.12051 0.27716 0.17539 0.20399 0.25499 0.50386 0.4309 0.8553 0.4309h45.963c0.35196 0 0.65353-0.1744 0.8553-0.4309 0.09165-0.05346 0.18104-0.11099 0.2685-0.17106v-2.7045c-0.0057 1.83e-4 -0.01155 0-0.01732 0v-6.4223c0-0.61308-0.49556-1.1086-1.1086-1.1086h-3.2004v-31.928c0-6.9479-5.6511-12.6-12.598-12.6zm0 2.2173h6.3834l0.96573 2.9015-2.3883 2.3883c-0.33814 0.33703-0.42073 0.85071-0.20787 1.2775l1.4378 2.8734c0.19512 0.38913 0.5859 0.61278 0.99388 0.61278 0.1663 0 0.33516-0.03821 0.49369-0.11693 0.54767-0.27384 0.76969-0.93991 0.49586-1.4876l-1.0805-2.1588 2.3082-2.3082c0.29712-0.29712 0.39937-0.73446 0.26634-1.1325l-0.94841-2.8496h5.645c5.7239 0 10.381 4.6577 10.381 10.383v24.464l-2.8063 0.24252-2.2671-2.1025c-0.20067-0.18514-0.46132-0.28894-0.73404-0.29448l-3.2112-0.05846c-0.6031 0.0089-1.117 0.47718-1.1281 1.0892-0.01108 0.61197 0.47718 1.117 1.0892 1.1281l2.7889 0.0498 2.3147 2.148c0.20621 0.19069 0.47526 0.29665 0.75353 0.29665 0.03104 0 0.0664-1e-3 0.09744-0.0043l3.1051-0.2685v5.2379h-35.13v-31.928c0-5.725 4.6588-10.383 10.383-10.383zm-14.69 44.528h43.746v6.4007h-43.746z" stroke-width="1.1086"/></svg>
