<?xml version="1.0" encoding="UTF-8"?>
<svg width="64" height="64" version="1.1" viewBox="0 0 64 64" xmlns="http://www.w3.org/2000/svg">
 <g transform="matrix(.4896 0 0 .4896 -12.309 -12.309)">
  <path d="m89.553 132.11c-22.644 0-41-18.356-41-41s18.356-41 41-41 41 18.356 41 41-18.356 41-41 41z" fill-opacity="0" stroke="#000" stroke-width="7"/>
  <path d="m84.563 32.42c2.136-0.187 4.02 1.394 4.207 3.53l1.003 11.467c0.187 2.136-1.393 4.02-3.53 4.207s-4.021-1.394-4.208-3.53l-1.003-11.467c-0.187-2.136 1.394-4.02 3.531-4.207z"/>
  <path d="m84.563 32.42c2.136-0.187 4.02 1.394 4.207 3.53l1.003 11.467c0.187 2.136-1.393 4.02-3.53 4.207s-4.021-1.394-4.208-3.53l-1.003-11.467c-0.187-2.136 1.394-4.02 3.531-4.207z" fill-opacity="0" stroke="#000"/>
  <path d="m117.49 39.308c1.944 0.906 2.785 3.217 1.878 5.161l-4.864 10.431c-0.907 1.944-3.217 2.785-5.161 1.879-1.944-0.907-2.785-3.218-1.879-5.161l4.865-10.432c0.906-1.944 3.217-2.785 5.161-1.878z"/>
  <path d="m117.49 39.308c1.944 0.906 2.785 3.217 1.878 5.161l-4.864 10.431c-0.907 1.944-3.217 2.785-5.161 1.879-1.944-0.907-2.785-3.218-1.879-5.161l4.865-10.432c0.906-1.944 3.217-2.785 5.161-1.878z" fill-opacity="0" stroke="#000"/>
  <path d="m141.18 60.641c1.231 1.757 0.804 4.179-0.953 5.409l-9.429 6.602c-1.757 1.23-4.178 0.803-5.409-0.954-1.23-1.757-0.803-4.179 0.954-5.409l9.429-6.602c1.757-1.23 4.178-0.803 5.408 0.954z"/>
  <path d="m141.18 60.641c1.231 1.757 0.804 4.179-0.953 5.409l-9.429 6.602c-1.757 1.23-4.178 0.803-5.409-0.954-1.23-1.757-0.803-4.179 0.954-5.409l9.429-6.602c1.757-1.23 4.178-0.803 5.408 0.954z" fill-opacity="0" stroke="#000"/>
  <path d="m149.02 94.883c-0.187 2.137-2.07 3.717-4.207 3.531l-11.466-1.004c-2.137-0.187-3.718-2.07-3.531-4.207s2.071-3.717 4.208-3.53l11.466 1.003c2.137 0.187 3.717 2.07 3.53 4.207z"/>
  <path d="m149.02 94.883c-0.187 2.137-2.07 3.717-4.207 3.531l-11.466-1.004c-2.137-0.187-3.718-2.07-3.531-4.207s2.071-3.717 4.208-3.53l11.466 1.003c2.137 0.187 3.717 2.07 3.53 4.207z" fill-opacity="0" stroke="#000"/>
  <path d="m122.52 113.52c1.23-1.757 3.652-2.184 5.409-0.954l9.428 6.602c1.757 1.23 2.184 3.652 0.954 5.409s-3.652 2.184-5.409 0.953l-9.429-6.602c-1.757-1.23-2.184-3.651-0.953-5.408z"/>
  <path d="m122.52 113.52c1.23-1.757 3.652-2.184 5.409-0.954l9.428 6.602c1.757 1.23 2.184 3.652 0.954 5.409s-3.652 2.184-5.409 0.953l-9.429-6.602c-1.757-1.23-2.184-3.651-0.953-5.408z" fill-opacity="0" stroke="#000"/>
  <path d="m105.12 126.99c2.015-0.734 4.244 0.305 4.977 2.321l3.937 10.816c0.734 2.015-0.306 4.244-2.321 4.977-2.016 0.734-4.244-0.305-4.978-2.321l-3.937-10.816c-0.733-2.015 0.306-4.244 2.322-4.977z"/>
  <path d="m105.12 126.99c2.015-0.734 4.244 0.305 4.977 2.321l3.937 10.816c0.734 2.015-0.306 4.244-2.321 4.977-2.016 0.734-4.244-0.305-4.978-2.321l-3.937-10.816c-0.733-2.015 0.306-4.244 2.322-4.977z" fill-opacity="0" stroke="#000"/>
  <path d="m82.087 129.55c2.112 0.372 3.523 2.387 3.15 4.499l-1.998 11.335c-0.373 2.112-2.387 3.523-4.499 3.15-2.113-0.372-3.523-2.386-3.151-4.499l1.999-11.335c0.372-2.112 2.387-3.523 4.499-3.15z"/>
  <path d="m82.087 129.55c2.112 0.372 3.523 2.387 3.15 4.499l-1.998 11.335c-0.373 2.112-2.387 3.523-4.499 3.15-2.113-0.372-3.523-2.386-3.151-4.499l1.999-11.335c0.372-2.112 2.387-3.523 4.499-3.15z" fill-opacity="0" stroke="#000"/>
  <path d="m62.229 120.23c1.516 1.516 1.516 3.975 0 5.492l-8.139 8.139c-1.517 1.516-3.976 1.516-5.492 0-1.517-1.517-1.517-3.976 0-5.493l8.138-8.138c1.517-1.517 3.976-1.517 5.493 0z"/>
  <path d="m62.229 120.23c1.516 1.516 1.516 3.975 0 5.492l-8.139 8.139c-1.517 1.516-3.976 1.516-5.492 0-1.517-1.517-1.517-3.976 0-5.493l8.138-8.138c1.517-1.517 3.976-1.517 5.493 0z" fill-opacity="0" stroke="#000"/>
  <path d="m50.723 99.548c0.556 2.072-0.674 4.202-2.746 4.757l-11.117 2.979c-2.072 0.555-4.202-0.674-4.757-2.746s0.674-4.202 2.746-4.757l11.118-2.979c2.072-0.555 4.201 0.675 4.756 2.746z"/>
  <path d="m50.723 99.548c0.556 2.072-0.674 4.202-2.746 4.757l-11.117 2.979c-2.072 0.555-4.202-0.674-4.757-2.746s0.674-4.202 2.746-4.757l11.118-2.979c2.072-0.555 4.201 0.675 4.756 2.746z" fill-opacity="0" stroke="#000"/>
  <path d="m51.471 78.34c-0.734 2.015-2.963 3.054-4.978 2.321l-10.816-3.937c-2.015-0.733-3.055-2.962-2.321-4.978 0.733-2.015 2.962-3.054 4.978-2.321l10.815 3.937c2.016 0.734 3.055 2.962 2.322 4.978z"/>
  <path d="m51.471 78.34c-0.734 2.015-2.963 3.054-4.978 2.321l-10.816-3.937c-2.015-0.733-3.055-2.962-2.321-4.978 0.733-2.015 2.962-3.054 4.978-2.321l10.815 3.937c2.016 0.734 3.055 2.962 2.322 4.978z" fill-opacity="0" stroke="#000"/>
  <path d="m52.218 44.659c1.643-1.378 4.092-1.164 5.471 0.479l7.399 8.817c1.378 1.643 1.164 4.093-0.479 5.472-1.643 1.378-4.093 1.164-5.472-0.479l-7.398-8.817c-1.379-1.643-1.164-4.093 0.479-5.472z"/>
  <path d="m52.218 44.659c1.643-1.378 4.092-1.164 5.471 0.479l7.399 8.817c1.378 1.643 1.164 4.093-0.479 5.472-1.643 1.378-4.093 1.164-5.472-0.479l-7.398-8.817c-1.379-1.643-1.164-4.093 0.479-5.472z" fill-opacity="0" stroke="#000"/>
  <path d="m86.911 69.8c-3.038 0-5.5-2.462-5.5-5.5s2.462-5.5 5.5-5.5c3.037 0 5.5 2.462 5.5 5.5s-2.463 5.5-5.5 5.5z"/>
  <path d="m124.25 88.947c-3.037 0-5.5-2.462-5.5-5.5 0-3.037 2.463-5.5 5.5-5.5 3.038 0 5.5 2.463 5.5 5.5 0 3.038-2.462 5.5-5.5 5.5z"/>
  <path d="m72.079 127.73c-3.038 0-5.5-2.462-5.5-5.5 0-3.037 2.462-5.5 5.5-5.5s5.5 2.463 5.5 5.5c0 3.038-2.462 5.5-5.5 5.5z"/>
  <path d="m57.679 78.463c-3.038 0-5.5-2.462-5.5-5.5 0-3.037 2.462-5.5 5.5-5.5s5.5 2.463 5.5 5.5c0 3.038-2.462 5.5-5.5 5.5z"/>
  <path d="m109.85 124.7c-3.037 0-5.5-2.463-5.5-5.5 0-3.038 2.463-5.5 5.5-5.5 3.038 0 5.5 2.462 5.5 5.5 0 3.037-2.462 5.5-5.5 5.5z"/>
  <path d="m104.04 81.368c-3.038 0-5.5-2.462-5.5-5.5 0-3.037 2.462-5.5 5.5-5.5 3.037 0 5.5 2.463 5.5 5.5 0 3.038-2.463 5.5-5.5 5.5z"/>
  <path d="m76.879 87.179c-3.038 0-5.5-2.462-5.5-5.5s2.462-5.5 5.5-5.5 5.5 2.462 5.5 5.5-2.462 5.5-5.5 5.5z"/>
  <path d="m86.858 113.83c-3.038 0-5.5-2.463-5.5-5.5 0-3.038 2.462-5.5 5.5-5.5 3.037 0 5.5 2.462 5.5 5.5 0 3.037-2.463 5.5-5.5 5.5z"/>
  <path d="m104.29 102.84c-3.037 0-5.5-2.462-5.5-5.5 0-3.037 2.463-5.5 5.5-5.5 3.038 0 5.5 2.463 5.5 5.5 0 3.038-2.462 5.5-5.5 5.5z"/>
  <path d="m63.616 101.33c-3.038 0-5.5-2.462-5.5-5.5 0-3.037 2.462-5.5 5.5-5.5 3.037 0 5.5 2.463 5.5 5.5 0 3.038-2.463 5.5-5.5 5.5z"/>
  <path d="m105.05 63.053c-3.037 0-5.5-2.463-5.5-5.5 0-3.038 2.463-5.5 5.5-5.5 3.038 0 5.5 2.462 5.5 5.5 0 3.037-2.462 5.5-5.5 5.5z"/>
 </g>
</svg>
