<?xml version="1.0" encoding="UTF-8"?>
<svg id="Icon" width="64" height="64" enable-background="new 0 0 250 250" version="1.1" viewBox="0 0 64 64" xml:space="preserve" xmlns="http://www.w3.org/2000/svg">

<g transform="matrix(.42926 0 0 .42926 -21.7 -21.67)">
	
		<path d="m157.4 132c0.3 0.4 0.2 1-0.3 1.2l-5.5 3.6c-0.4 0.3-1 0.2-1.2-0.3l-3.1-4.7-9.9 6.4-12.8-19.9c1.8-1.6 3.3-3.4 4.4-5.6l10.4 16.2 14.7-9.5-29.9-46.3c-2.6-4.1-8.1-5.2-12.1-2.6-1.9 1.2-3.3 3.3-3.8 5.5-0.5 2.3-0.1 4.6 1.2 6.6l2.2 3.4c-2.5 0.1-4.8 0.7-6.9 1.7l-0.9-1.4c-2.2-3.5-3-7.6-2.1-11.6 0.8-4 3.3-7.5 6.7-9.7 7.2-4.6 16.7-2.5 21.4 4.6l33.5 52-9 5.8z"/>
		<path d="m63.5 174c0 7.4 6 13.5 13.5 13.5h96.2c7.4 0 13.5-6 13.5-13.5 0-7.4-6-13.5-13.5-13.5h-6v-3.7h3.2c2.2 0 4-1.8 4-4s-1.8-4-4-4h-14.6c-2.2 0-4 1.8-4 4s1.8 4 4 4h3.3v3.7h-38.7c-8.8-3.7-14.6-12.6-14.6-22.3 0-5.8 2.1-11.1 5.6-15.4-2.5-0.2-4.8-0.8-6.9-1.9-3.4 5-5.4 11-5.4 17.3 0 8.5 3.6 16.5 9.5 22.3h-14.3c-4.2-6.7-6.4-14.3-6.4-22.3 0-9.2 3.1-17.9 8.4-25-1.3-2.4-2-5-2.2-7.8-8.1 8.8-12.9 20.5-12.9 32.9 0 7.8 1.9 15.4 5.4 22.3h-9.7c-7.4-0.1-13.4 6-13.4 13.4zm6.6 0c0-3.7 3-6.8 6.8-6.8h96.2c3.7 0 6.8 3 6.8 6.8 0 3.7-3 6.8-6.8 6.8h-96.2c-3.7 0-6.8-3-6.8-6.8z"/>
	
	
		<path d="m96.5 104.2c0-8.9 7.2-16.1 16.1-16.1s16.1 7.2 16.1 16.1-7.2 16.1-16.1 16.1-16.1-7.2-16.1-16.1zm6.7 0c0 5.2 4.2 9.4 9.4 9.4s9.4-4.2 9.4-9.4-4.2-9.4-9.4-9.4c-5.2-0.1-9.4 4.2-9.4 9.4z"/>
	
</g>
</svg>
